Coordinates
version=1
nRows=60
nColumns=12
inDegrees=yes

Units are S.I. units (second, meters, Newtons, ...)
Angles are in degrees

endheader
time	SC_y	SC_z	SC_x	AC_y	AC_z	AC_x	GH_y	GH_z	GH_yy	EL_x	PS_y
       0.0              -24.56          15.41          28.16           66.8         -1.853          3.784          106.2          41.22         -102.4          105.2          120.1
  0.005652              -24.56          15.41          28.16           66.8         -1.854          3.783          106.2          41.22         -102.4          105.2          120.1
    0.0113              -24.56          15.42          28.15           66.8         -1.855          3.782          106.1          41.23         -102.4          105.2          120.1
   0.01696              -24.56          15.42          28.15          66.79         -1.857          3.781          106.1          41.23         -102.4          105.2          120.1
   0.02261              -24.56          15.42          28.15          66.79         -1.858          3.779          106.0          41.23         -102.4          105.2          120.1
   0.02826              -24.56          15.42          28.14          66.79         -1.859          3.778          106.0          41.24         -102.4          105.2          120.1
   0.03391              -24.56          15.43          28.14          66.78         -1.861          3.776          105.9          41.24         -102.4          105.2          120.1
   0.03957              -24.55          15.43          28.13          66.78         -1.862          3.774          105.9          41.24         -102.4          105.2          120.1
   0.04522              -24.55          15.44          28.13          66.77         -1.864          3.772          105.8          41.25         -102.3          105.2          120.1
   0.05087              -24.55          15.44          28.12          66.77         -1.866           3.77          105.8          41.25         -102.3          105.2          120.1
   0.05652              -24.55          15.44          28.12          66.76         -1.868          3.768          105.7          41.26         -102.3          105.3          120.1
   0.06218              -24.54          15.45          28.11          66.76          -1.87          3.766          105.6          41.26         -102.3          105.3          120.1
   0.06783              -24.54          15.46          28.11          66.75         -1.872          3.763          105.6          41.27         -102.3          105.3          120.1
   0.07348              -24.54          15.46           28.1          66.74         -1.874          3.761          105.5          41.27         -102.3          105.3          120.1
   0.07913              -24.54          15.47          28.09          66.73         -1.877          3.758          105.4          41.28         -102.3          105.3          120.1
   0.08479              -24.53          15.47          28.08          66.73          -1.88          3.755          105.3          41.28         -102.3          105.3          120.1
   0.09044              -24.53          15.48          28.08          66.72         -1.883          3.751          105.2          41.29         -102.3          105.3          120.1
   0.09609              -24.53          15.49          28.07          66.71         -1.886          3.747          105.1           41.3         -102.2          105.3          120.1
    0.1017              -24.52           15.5          28.06           66.7          -1.89          3.743          104.9          41.31         -102.2          105.3          120.1
    0.1074              -24.52          15.51          28.04          66.69         -1.894          3.739          104.8          41.32         -102.2          105.3          120.1
     0.113              -24.51          15.52          28.03          66.67         -1.899          3.734          104.6          41.33         -102.2          105.3          120.1
    0.1187              -24.51          15.53          28.02          66.66         -1.904          3.728          104.5          41.34         -102.2          105.3          120.1
    0.1244               -24.5          15.54           28.0          66.64         -1.909          3.722          104.3          41.35         -102.1          105.3          120.1
      0.13              -24.49          15.56          27.99          66.63         -1.915          3.716          104.1          41.36         -102.1          105.3          120.1
    0.1357              -24.49          15.57          27.97          66.61         -1.922          3.708          103.9          41.38         -102.1          105.4          120.1
    0.1413              -24.48          15.59          27.95          66.59         -1.929            3.7          103.6           41.4         -102.0          105.4          120.1
     0.147              -24.47          15.61          27.92          66.56         -1.937          3.691          103.3          41.41         -102.0          105.4          120.0
    0.1526              -24.46          15.63           27.9          66.53         -1.947           3.68          103.0          41.44         -101.9          105.4          120.0
    0.1583              -24.45          15.66          27.87           66.5         -1.957          3.669          102.6          41.46         -101.9          105.4          120.0
    0.1639              -24.43          15.69          27.83          66.47         -1.969          3.655          102.2          41.49         -101.8          105.4          120.0
    0.1696              -24.42          15.72          27.79          66.43         -1.983           3.64          101.8          41.52         -101.8          105.5          120.0
    0.1752               -24.4          15.76          27.75          66.38         -1.999          3.622          101.2          41.55         -101.7          105.5          120.0
    0.1809              -24.38           15.8           27.7          66.33         -2.017          3.602          100.6           41.6         -101.6          105.5          119.9
    0.1865              -24.36          15.85          27.64          66.27         -2.038          3.579          99.87          41.64         -101.5          105.6          119.9
    0.1922              -24.33          15.91          27.57           66.2         -2.063          3.551          99.02           41.7         -101.4          105.6          119.9
    0.1978               -24.3          15.98          27.49          66.12         -2.092          3.519          98.02          41.77         -101.2          105.7          119.9
    0.2035              -24.26          16.06          27.39          66.02         -2.126           3.48          96.84          41.85         -101.1          105.8          119.8
    0.2091              -24.21          16.16          27.27           65.9         -2.168          3.434          95.42          41.94         -100.9          105.8          119.8
    0.2148              -24.15          16.28          27.13          65.75         -2.218          3.379           93.7          42.05         -100.6          105.9          119.7
    0.2204              -24.08          16.42          26.96          65.58         -2.279           3.31           91.6          42.19         -100.3          106.1          119.6
    0.2261               -24.0           16.6          26.75          65.36         -2.355          3.226           89.0          42.37         -99.96          106.2          119.5
    0.2318              -23.89          16.83          26.48          65.09         -2.449          3.121          85.77          42.58         -99.51          106.4          119.4
    0.2374              -23.76          17.11          26.15          64.75         -2.567          2.989           81.7          42.85         -98.93          106.6          119.3
    0.2431              -23.59          17.47          25.72          64.31         -2.718          2.821          76.52           43.2          -98.2          106.9          119.1
    0.2487              -23.37          17.92          25.18          63.76         -2.912          2.606          69.89          43.64         -97.26          107.3          118.8
    0.2544              -23.09          18.51          24.48          63.04         -3.159           2.33          61.39           44.2         -96.06          107.8          118.5
      0.26              -22.74          19.27          23.59          62.13         -3.476          1.978          50.53          44.93         -94.52          108.4          118.1
    0.2657              -22.29          20.21          22.47          60.99         -3.874          1.535          36.87          45.84         -92.59          109.2          117.6
    0.2713              -21.74          21.36           21.1          59.59         -4.359         0.9948          20.22          46.94         -90.23          110.1          117.0
     0.277              -21.11           22.7          19.51          57.97         -4.921         0.3689         0.9298          48.23          -87.5          111.2          116.3
    0.2826              -20.43          24.15           17.8          56.22          -5.53        -0.3089         -19.96          49.62         -84.54          112.4          115.6
    0.2883              -19.74          25.59          16.08          54.47         -6.139        -0.9867         -40.85          51.01         -81.59          113.6          114.8
    0.2939              -19.11          26.93           14.5          52.85         -6.702         -1.613         -60.14          52.29         -78.86          114.7          114.1
    0.2996              -18.56          28.08          13.13          51.45         -7.187         -2.153         -76.79           53.4          -76.5          115.7          113.5
    0.3052              -18.11          29.03          12.01           50.3         -7.585         -2.596         -90.45          54.31         -74.57          116.5          113.0
    0.3109              -17.76          29.78          11.12          49.39         -7.901         -2.948         -101.3          55.03         -73.03          117.1          112.6
    0.3165              -17.48          30.37          10.42          48.68         -8.149         -3.224         -109.8           55.6         -71.83          117.6          112.3
    0.3222              -17.26          30.83          9.876          48.12         -8.342         -3.439         -116.4          56.04         -70.89          117.9          112.1
    0.3278              -17.09          31.19           9.45          47.69         -8.493         -3.607         -121.6          56.39         -70.16          118.2          111.9
    0.3335              -16.96          31.47          9.116          47.35         -8.612         -3.739         -125.7          56.66         -69.58          118.5          111.7
